 <svg
        xmlns="http://www.w3.org/2000/svg"
        width="32.42"
        height="27.997"
        viewBox="0 0 32.42 27.997"
      >
        <g id="Line" transform="translate(-2 -5.002)">
          <path
            id="Path_82156"
            data-name="Path 82156"
            d="M2.737,36.684H33.683a.737.737,0,0,0,.737-.737V30.789a.737.737,0,0,0-.737-.737H32.209a2.21,2.21,0,1,1,0-4.421h1.474a.737.737,0,0,0,.737-.737V19.737A.737.737,0,0,0,33.683,19H2.737A.737.737,0,0,0,2,19.737v5.158a.737.737,0,0,0,.737.737H4.21a2.21,2.21,0,0,1,0,4.421H2.737A.737.737,0,0,0,2,30.789v5.158a.737.737,0,0,0,.737.737Zm21.368-14a.737.737,0,1,1,1.474,0v1.474a.737.737,0,0,1-1.474,0Zm0,4.421a.737.737,0,0,1,1.474,0v1.474a.737.737,0,0,1-1.474,0Zm0,4.421a.737.737,0,0,1,1.474,0V33A.737.737,0,0,1,24.1,33Zm-12.526-8.1H20.42a.737.737,0,1,1,0,1.474H11.579a.737.737,0,1,1,0-1.474Zm0,3.684H20.42a.737.737,0,1,1,0,1.474H11.579a.737.737,0,0,1,0-1.474Zm0,3.684H20.42a.737.737,0,1,1,0,1.474H11.579a.737.737,0,0,1,0-1.474Z"
            transform="translate(0 -3.684)"
                        fill="#8796B0"
          />
          <path
            id="Path_82157"
            data-name="Path 82157"
            d="M8.518,5.457l-1.96,4.767a.693.693,0,0,0,0,.567.737.737,0,0,0,.4.4l1.385.56a2.21,2.21,0,0,1,1.341,2.093H30.807L9.483,5.06a.737.737,0,0,0-.965.4Z"
            transform="translate(-1.184)"
            fill="#8796B0"
          />
        </g>
      </svg>